<?xml version="1.0" encoding="UTF-8"?>
<svg id="Capa_2" xmlns="http://www.w3.org/2000/svg" viewBox="0 0 302.98 323.97">
  <defs>
    <style>
      .cls-1 {
        fill: #0da6d2;
      }

      .cls-2 {
        fill: #84cfee;
      }
    </style>
  </defs>
  <g id="Capa_2-2" data-name="Capa_2">
    <g>
      <polygon class="cls-2" points="302.98 99.41 302.98 157.82 239.15 194.67 220.75 205.29 202.45 215.86 151.62 245.3 151.62 186.89 170.16 176.09 239.15 136.26 302.98 99.41"/>
      <polygon class="cls-1" points="151.62 254.45 151.62 323.97 91.4 289.21 70.43 277.1 61.58 271.99 61.58 304.85 41.97 293.53 0 269.3 0 166.92 61.52 202.44 61.58 202.47 80.04 213.14 130.63 242.34 151.62 254.45"/>
      <polygon class="cls-2" points="151.62 254.45 151.62 323.97 211.58 289.45 232.55 277.34 241.41 272.23 241.41 305.09 261.02 293.77 302.98 269.54 302.98 167.16 241.46 202.67 241.41 202.71 222.94 213.38 172.36 242.58 151.62 254.45"/>
      <path class="cls-1" d="M151.85,0L0,89.25h0l151.85,87.68.24-.15,150.89-87.12L151.85,0ZM152.1.13l-.24-.13M88.06,99.51s-18.63,11.51-38.87,0c-20.23-11.51.26-22.29.26-22.29,0,0,19.2-11.1,38.34,0,19.14,11.08.26,22.29.26,22.29ZM170.56,146.97s-18.65,11.51-38.89,0c-20.22-11.51.26-22.29.26-22.29,0,0,19.22-11.1,38.36,0,19.14,11.1.26,22.29.26,22.29ZM170.56,50.38s-18.65,11.51-38.89,0c-20.22-11.49.26-22.29.26-22.29,0,0,19.22-11.08,38.36,0,19.14,11.1.26,22.29.26,22.29ZM250.52,99.51s-18.65,11.51-38.89,0c-20.22-11.51.26-22.29.26-22.29,0,0,19.22-11.1,38.36,0,19.14,11.08.26,22.29.26,22.29Z"/>
      <polygon class="cls-1" points="151.62 186.89 151.62 245.3 101.51 216.09 82.97 205.39 63.83 194.33 0 157.48 0 99.08 63.83 135.93 133.56 176.17 151.62 186.89"/>
    </g>
  </g>
</svg>