<?xml version="1.0" encoding="UTF-8"?>
<svg id="Capa_2" xmlns="http://www.w3.org/2000/svg" viewBox="0 0 309.2 392.48">
  <defs>
    <style>
      .cls-1 {
        fill: #0da6d2;
      }

      .cls-2 {
        fill: #fff;
      }

      .cls-3 {
        fill: #84cfee;
      }
    </style>
  </defs>
  <g id="Capa_2-2" data-name="Capa_2">
    <g>
      <g>
        <polygon class="cls-3" points="306.22 99.41 306.22 157.82 242.39 194.67 223.98 205.29 205.69 215.86 154.85 245.3 154.85 186.89 173.39 176.09 242.39 136.26 306.22 99.41"/>
        <polygon class="cls-1" points="154.85 254.45 154.85 323.97 94.64 289.21 73.67 277.1 64.81 271.99 64.81 304.85 45.2 293.53 3.24 269.3 3.24 166.92 64.76 202.44 64.81 202.47 83.28 213.14 133.86 242.34 154.85 254.45"/>
        <polygon class="cls-3" points="154.85 254.45 154.85 323.97 214.82 289.45 235.79 277.34 244.64 272.23 244.64 305.09 264.25 293.77 306.22 269.54 306.22 167.16 244.7 202.67 244.64 202.71 226.18 213.38 175.59 242.58 154.85 254.45"/>
        <path class="cls-1" d="M155.09,0L3.24,89.25h0l151.85,87.68.24-.15,150.89-87.12L155.09,0ZM155.33.13l-.24-.13M91.29,99.51s-18.63,11.51-38.87,0c-20.23-11.51.26-22.29.26-22.29,0,0,19.2-11.1,38.34,0,19.14,11.08.26,22.29.26,22.29ZM173.8,146.97s-18.65,11.51-38.89,0c-20.22-11.51.26-22.29.26-22.29,0,0,19.22-11.1,38.36,0,19.14,11.1.26,22.29.26,22.29ZM173.8,50.38s-18.65,11.51-38.89,0c-20.22-11.49.26-22.29.26-22.29,0,0,19.22-11.08,38.36,0,19.14,11.1.26,22.29.26,22.29ZM253.75,99.51s-18.65,11.51-38.89,0c-20.22-11.51.26-22.29.26-22.29,0,0,19.22-11.1,38.36,0,19.14,11.08.26,22.29.26,22.29Z"/>
        <polygon class="cls-1" points="154.85 186.89 154.85 245.3 104.75 216.09 86.21 205.39 67.07 194.33 3.24 157.48 3.24 99.08 67.07 135.93 136.79 176.17 154.85 186.89"/>
      </g>
      <g>
        <path class="cls-2" d="M28.26,349.96l-6.61,25.45-.67,2.58-.69-2.58-6.81-25.45H0v42.52h10.01v-21.71l1.31,4.63,1.85,6.61,2.94,10.46h9.79l2.91-10.46,1.85-6.61,1.29-4.63v21.71h9.86v-42.52h-13.54Z"/>
        <path class="cls-2" d="M46.72,382.01v10.46h26.63v-10.46h-26.63ZM73.24,360.47v-10.51h-26.52v25.45h24.23v-8.9h-14.55v-6.04h16.84Z"/>
        <path class="cls-2" d="M91.6,366.57v8.84h5.42v6.38h-8.5c-1.12,0-1.68-.56-1.68-1.68v-17.79c0-1.12.56-1.68,1.68-1.68h17.57v-10.68h-21.27c-5.11,0-7.66,2.59-7.66,7.77v27.31c0,4.96,2.55,7.44,7.66,7.44h21.61v-25.91h-14.83Z"/>
        <path class="cls-2" d="M135.18,349.96h-16.5c-5.23,0-7.84,2.48-7.84,7.44v35.08h9.68v-17.46h12.82v17.46h9.68v-35.08c0-4.96-2.6-7.44-7.84-7.44ZM133.34,366.07h-12.82v-4.04c0-1.12.56-1.67,1.68-1.67h9.46c1.12,0,1.68.55,1.68,1.67v4.04Z"/>
        <path class="cls-2" d="M168.36,349.96l-5.81,25.45-.73,3.19-.69-3.19-5.47-25.45h-10.97l10.3,42.52h13.09l2.63-10.46,1.67-6.61,6.39-25.45h-10.41Z"/>
        <path class="cls-2" d="M181.63,382.01v10.46h26.63v-10.46h-26.63ZM205.86,375.41v-8.9h-14.55v-6.04h16.84v-10.51h-26.52v25.45h24.23Z"/>
        <path class="cls-2" d="M243.15,391.53c-.06-.34-.08-.88-.08-1.62v-12.6c0-.7-.07-1.33-.2-1.91-.18-.82-.5-1.53-.96-2.12-.77-1-2-1.7-3.69-2.07,3.16-.55,4.74-2.76,4.74-6.6v-6.72c0-5.29-2.58-7.94-7.74-7.94h-22.94v42.52h9.69v-16.79h9.73c1.13,0,1.68.56,1.68,1.68v12.87c0,.53.03.97.09,1.32.06.36.11.67.19.92h9.69c-.08-.3-.15-.62-.2-.95ZM221.97,360.36h9.73c1.13,0,1.68.55,1.68,1.67v2.97c0,1.13-.55,1.68-1.68,1.68h-9.73v-6.31Z"/>
        <path class="cls-2" d="M270.46,366.73h-11.67c-1.12,0-1.68-.55-1.68-1.68v-2.74c0-1.12.56-1.68,1.68-1.68h18.13v-10.68h-21.93c-5.04,0-7.56,2.7-7.56,8.11v10.13c0,4.1,1.78,6.51,5.36,7.22.74.15,1.57.23,2.47.23h11.31c1.12,0,1.68.56,1.68,1.68v2.8c0,1.12-.56,1.68-1.68,1.68h-19.08v10.69h22.3c5.42,0,8.13-2.76,8.13-8.28v-9.97c0-5-2.48-7.5-7.46-7.5Z"/>
        <path class="cls-2" d="M309.09,360.47v-10.51h-26.52v25.45h24.23v-8.9h-14.55v-6.04h16.84ZM282.57,382.01v10.46h26.63v-10.46h-26.63Z"/>
      </g>
    </g>
  </g>
</svg>